<svg width="24" height="24" viewBox="0 0 24 24" fill="none" xmlns="http://www.w3.org/2000/svg">
<mask id="mask0_50_881" style="mask-type:alpha" maskUnits="userSpaceOnUse" x="0" y="0" width="24" height="24">
<rect width="24" height="24" transform="matrix(0 -1 -1 0 24 24)" fill="#D9D9D9"/>
</mask>
<g mask="url(#mask0_50_881)">
<path d="M9.50649 11.9435L16.8565 4.59349C17.1065 4.34349 17.2273 4.05183 17.219 3.71849C17.2107 3.38516 17.0815 3.09349 16.8315 2.84349C16.5815 2.59349 16.2898 2.46849 15.9565 2.46849C15.6232 2.46849 15.3315 2.59349 15.0815 2.84349L7.38149 10.5185C7.18149 10.7185 7.03149 10.9435 6.93149 11.1935C6.83149 11.4435 6.78149 11.6935 6.78149 11.9435C6.78149 12.1935 6.83149 12.4435 6.93149 12.6935C7.03149 12.9435 7.18149 13.1685 7.38149 13.3685L15.0815 21.0685C15.3315 21.3185 15.6273 21.4393 15.969 21.431C16.3107 21.4227 16.6065 21.2935 16.8565 21.0435C17.1065 20.7935 17.2315 20.5018 17.2315 20.1685C17.2315 19.8352 17.1065 19.5435 16.8565 19.2935L9.50649 11.9435Z" fill="black"/>
</g>
</svg>
