<svg width="25" height="24" viewBox="0 0 25 24" fill="none" xmlns="http://www.w3.org/2000/svg">
<path d="M8.25499 13.288C8.27299 13.303 11.14 10.439 11.14 10.407C11.14 10.375 6.09299 5.33303 4.83099 4.10003C4.36899 3.65003 3.96899 3.28003 3.94599 3.28003C3.86328 3.32502 3.7905 3.38625 3.73199 3.46003C3.39272 3.83567 3.13648 4.27865 2.97999 4.76003C2.92099 4.92903 2.87999 5.06803 2.87999 5.06803C2.87505 5.11794 2.86636 5.16742 2.85399 5.21603C2.72907 5.76931 2.7175 6.34216 2.81999 6.90003C3.03299 7.91603 3.34699 8.36003 5.13299 10.164C5.72299 10.762 8.14999 13.185 8.25499 13.288ZM15.15 11.659C15.226 11.685 15.2946 11.7289 15.35 11.787C15.554 11.9788 15.7945 12.1276 16.057 12.2248C16.3196 12.322 16.599 12.3655 16.8787 12.3529C17.1584 12.3402 17.4327 12.2715 17.6855 12.151C17.9382 12.0304 18.1641 11.8604 18.35 11.651C18.741 11.313 18.939 11.12 20.85 9.21603L22.75 7.32003L22.273 6.83803C22.013 6.57103 21.793 6.35803 21.787 6.36403C21.781 6.37003 21.029 7.11603 20.117 8.02503L18.458 9.68103L17.984 9.21303C17.8192 9.0561 17.6604 8.89299 17.508 8.72403C17.508 8.71503 18.251 7.95703 19.163 7.04503L20.816 5.38603L20.35 4.90903C20.1934 4.74489 20.0313 4.58614 19.864 4.43303C19.855 4.43303 19.1 5.17903 18.188 6.08803L16.524 7.74703L16.039 7.26703L15.553 6.78703L17.211 5.12903C17.7697 4.57566 18.3227 4.01664 18.87 3.45203C18.87 3.44303 18.295 2.85203 18.005 2.57303L17.905 2.47803L16.94 3.46103C14.979 5.46603 14.108 6.37003 13.614 6.92103C13.519 7.02703 13.43 7.12103 13.421 7.12803C13.3576 7.19588 13.2965 7.26592 13.238 7.33803C13.0491 7.58898 12.9287 7.88477 12.8887 8.19634C12.8487 8.50791 12.8905 8.82451 13.01 9.11503C13.1171 9.37438 13.2511 9.62174 13.41 9.85303C13.422 9.86203 13.484 9.92703 13.55 9.99503L13.668 10.119L8.69899 15.092L3.72899 20.062L4.45199 20.791L5.17199 21.522L8.72599 17.968L12.277 14.417L15.808 17.947C16.9893 19.1324 18.176 20.3124 19.368 21.487C19.383 21.493 20.768 20.127 20.789 20.071C20.795 20.056 19.208 18.451 17.262 16.505L13.725 12.966L14.273 12.424C15.014 11.689 15.05 11.659 15.15 11.659Z" fill="#8F98A8"/>
</svg>
