<svg width="25" height="24" viewBox="0 0 25 24" fill="none" xmlns="http://www.w3.org/2000/svg">
<path d="M19.25 4H17.25V3C17.25 2.73478 17.1446 2.48043 16.9571 2.29289C16.7696 2.10536 16.5152 2 16.25 2C15.9848 2 15.7304 2.10536 15.5429 2.29289C15.3554 2.48043 15.25 2.73478 15.25 3V4H9.25V3C9.25 2.73478 9.14464 2.48043 8.95711 2.29289C8.76957 2.10536 8.51522 2 8.25 2C7.98478 2 7.73043 2.10536 7.54289 2.29289C7.35536 2.48043 7.25 2.73478 7.25 3V4H5.25C4.45435 4 3.69129 4.31607 3.12868 4.87868C2.56607 5.44129 2.25 6.20435 2.25 7V19C2.25 19.7956 2.56607 20.5587 3.12868 21.1213C3.69129 21.6839 4.45435 22 5.25 22H19.25C20.0456 22 20.8087 21.6839 21.3713 21.1213C21.9339 20.5587 22.25 19.7956 22.25 19V7C22.25 6.20435 21.9339 5.44129 21.3713 4.87868C20.8087 4.31607 20.0456 4 19.25 4ZM20.25 19C20.25 19.2652 20.1446 19.5196 19.9571 19.7071C19.7696 19.8946 19.5152 20 19.25 20H5.25C4.98478 20 4.73043 19.8946 4.54289 19.7071C4.35536 19.5196 4.25 19.2652 4.25 19V12H20.25V19ZM20.25 10H4.25V7C4.25 6.73478 4.35536 6.48043 4.54289 6.29289C4.73043 6.10536 4.98478 6 5.25 6H7.25V7C7.25 7.26522 7.35536 7.51957 7.54289 7.70711C7.73043 7.89464 7.98478 8 8.25 8C8.51522 8 8.76957 7.89464 8.95711 7.70711C9.14464 7.51957 9.25 7.26522 9.25 7V6H15.25V7C15.25 7.26522 15.3554 7.51957 15.5429 7.70711C15.7304 7.89464 15.9848 8 16.25 8C16.5152 8 16.7696 7.89464 16.9571 7.70711C17.1446 7.51957 17.25 7.26522 17.25 7V6H19.25C19.5152 6 19.7696 6.10536 19.9571 6.29289C20.1446 6.48043 20.25 6.73478 20.25 7V10Z" fill="#8F98A8"/>
</svg>
